<svg width="225" height="106.512" viewBox="0 0 225 106.512" class="css-1j8o68f"><g xmlns="http://www.w3.org/2000/svg" fill="#a5dee5"><path d="M81.161 31.625l-2.863-1.235c-1.454-.624-3.163.046-3.786 1.5l-4.26 9.894-34.344-14.788C35.423 23.059 32.052 20 27.988 20 23.59 20 20 23.579 20 27.977s3.579 7.989 7.989 7.989a7.88 7.88 0 003.913-1.028l37.219 16.035 3.128 1.35a2.882 2.882 0 003.463-.946c.127-.173.231-.358.312-.554l1.281-2.967.024-.046 5.345-12.41c.623-1.443-.058-3.14-1.513-3.775zm-53.172.681c-.277 0-.543-.023-.809-.08a4.325 4.325 0 01-3.509-4.249 4.326 4.326 0 014.318-4.317 4.27 4.27 0 013.232 1.466 4.334 4.334 0 011.085 2.863 4.326 4.326 0 01-4.317 4.317z"/><path d="M77.294 47.868c-.012.034-.023.057-.035.092l-1.235 2.863s0 .012-.012.012l1.282-2.967zm-9.582-10.032l-18.17-7.827a1.39 1.39 0 01-.728-1.824l2.425-5.622a1.39 1.39 0 011.824-.727l18.17 7.827a1.39 1.39 0 01.727 1.823l-2.424 5.623a1.39 1.39 0 01-1.824.727zM75.7 51.389a2.914 2.914 0 01-3.474.958l-2.863-1.235a2.604 2.604 0 01-.254-.127l3.129 1.35a2.893 2.893 0 003.463-.946zm1.825 27.163L74.65 77.33s-.011 0-.011-.012l2.886 1.235zm10.066-9.593l7.746-18.205a1.381 1.381 0 011.813-.728l5.622 2.39c.704.3 1.027 1.12.727 1.813l-7.746 18.205a1.381 1.381 0 01-1.812.727l-5.622-2.39a1.391 1.391 0 01-.728-1.812zm-13.911 7.7l.024.023c0-.011-.012-.011-.023-.023.011 0 .011 0 0 0zm.024.011c.034.035.057.07.092.093-.035-.023-.058-.058-.092-.092zm-.127-.138c.034.046.069.08.104.115a2.885 2.885 0 01-.578-3.117l1.224-2.874c.035-.08.08-.162.127-.242l-1.328 3.128a2.931 2.931 0 00-.23 1.281c0 .035 0 .058.011.081 0 .035 0 .058.012.093v.011c.011.046.011.104.023.15.011.046.011.093.023.139 0 .023.011.046.023.069.011.046.023.08.035.115a.65.65 0 00.046.139c0 .023.011.035.023.058a.427.427 0 00.058.127c.023.046.034.08.057.127.012.023.023.057.046.08 0 .012.012.024.012.035.023.035.035.07.058.092.011.035.034.058.057.081.024.035.047.081.081.116.023.023.035.057.058.08 0 .047.023.081.058.116zm.369.369c-.046-.046-.092-.08-.138-.127.034.035.08.081.138.127zm-25.801-.842l-1.247 2.967c.012-.024.023-.058.035-.081l1.212-2.875v-.011zm8.427 12.918l18.24 7.665c.704.3 1.039 1.108.739 1.812l-2.367 5.634a1.383 1.383 0 01-1.812.739l-18.24-7.666a1.383 1.383 0 01-.739-1.812l2.367-5.634a1.379 1.379 0 011.812-.738zM55.037 75.84l-3.129-1.317a2.897 2.897 0 00-3.174.647 2.879 2.879 0 013.186-.658l2.874 1.212c.093.035.173.07.243.115zm-5.749-26.275l-3.002-1.247a.38.38 0 01.104.046l2.886 1.2c.012-.01.012-.01.012 0zm-12.884 8.473L28.82 76.313a1.394 1.394 0 01-1.813.75l-5.645-2.343a1.394 1.394 0 01-.75-1.813l7.584-18.263a1.394 1.394 0 011.813-.75l5.645 2.343a1.362 1.362 0 01.75 1.801z"/><path d="M96.977 20.889c-4.399 0-7.989 3.579-7.989 7.977 0 1.605.473 3.094 1.293 4.34L74.454 70.415l-1.328 3.128a2.931 2.931 0 00-.23 1.281c0 .024 0 .058.011.081 0 .035 0 .058.012.093v.011c.011.046.011.104.023.15.011.046.011.093.023.139 0 .023.011.046.023.069.011.046.023.08.035.115a.65.65 0 00.046.139c0 .023.011.035.023.058a.427.427 0 00.058.127c.023.046.034.08.057.127.012.023.023.057.046.08 0 .012.012.024.012.035.023.035.035.07.058.092.011.035.034.058.057.081.024.035.047.081.081.116.023.023.035.057.058.08.035.035.058.07.092.116.023.023.035.046.058.07.012.01.012.01.023.022l.023.023.012.012c.08.08.161.162.254.23l.138.105c.173.127.358.23.554.311l2.886 1.236.139.057 12.433 5.288a2.884 2.884 0 003.775-1.524l1.224-2.875c.623-1.454-.07-3.151-1.524-3.775L83.689 71.5l14.8-34.783a7.993 7.993 0 006.511-7.85c-.035-4.398-3.613-7.977-8.023-7.977zm3.151 10.932a4.285 4.285 0 01-3.151 1.362 4.326 4.326 0 01-4.318-4.317c0-.08 0-.173.012-.254a4.317 4.317 0 014.317-4.064 4.326 4.326 0 014.318 4.318 4.3 4.3 0 01-1.178 2.955zM50.026 50.003a2.602 2.602 0 00-.727-.438l-3.001-1.247-.035-.012-12.48-5.171a2.879 2.879 0 00-3.763 1.558l-1.2 2.886a2.879 2.879 0 001.558 3.764l9.951 4.132L25.737 90.64A7.996 7.996 0 0020 98.304c0 4.399 3.579 7.989 7.989 7.989 4.398 0 7.988-3.579 7.988-7.989 0-1.87-.646-3.59-1.731-4.952l15.296-36.884c.046-.08.08-.161.115-.242l1.2-2.886a2.925 2.925 0 00-.83-3.337zM27.99 102.622a4.326 4.326 0 01-4.318-4.318 4.311 4.311 0 014.318-4.318 4.328 4.328 0 014.294 3.868 4.326 4.326 0 01-4.294 4.768zm68.548-12.087a8.05 8.05 0 00-3.983 1.062L55.037 75.84l-3.129-1.316a2.897 2.897 0 00-3.174.647 2.79 2.79 0 00-.59.889l-1.246 2.967-5.253 12.513c-.611 1.467.081 3.164 1.536 3.775l2.874 1.213c1.466.611 3.163-.081 3.775-1.536l4.18-9.94 34.62 14.546a7.985 7.985 0 007.908 6.915c4.398 0 7.989-3.578 7.989-7.988 0-4.399-3.579-7.989-7.989-7.989zm0 12.306a4.28 4.28 0 01-3.255-1.489 4.328 4.328 0 01-1.062-2.828 4.326 4.326 0 014.964-4.272c2.078.312 3.682 2.113 3.682 4.272a4.328 4.328 0 01-4.329 4.317z"/></g><path d="M129.161 56.767v2.829h1.898v1.733h-1.898v4.673c0 .438.073.73.22.876s.437.219.875.219c.317 0 .584-.024.803-.073v2.026c-.365.06-.876.091-1.533.091-.997 0-1.74-.17-2.226-.511s-.73-.93-.73-1.77v-5.53H125v-1.734h1.57v-2.83h2.591zm7.009 2.573c1.265 0 2.254.256 2.966.767s1.11 1.259 1.195 2.245h-2.464c-.036-.45-.2-.776-.492-.977s-.718-.301-1.278-.301c-.487 0-.849.073-1.086.219s-.356.365-.356.657c0 .219.08.402.237.548s.399.273.721.383.679.2 1.068.274c1.18.23 2.014.468 2.5.711s.843.536 1.068.876.338.761.338 1.26c0 1.058-.387 1.87-1.16 2.436s-1.821.85-3.148.85c-1.387 0-2.467-.299-3.24-.895s-1.17-1.406-1.195-2.428h2.464c0 .487.189.873.566 1.16s.852.428 1.424.428c.486 0 .891-.106 1.213-.32s.484-.507.484-.884c0-.244-.1-.445-.301-.603s-.484-.298-.849-.42-.93-.261-1.697-.42c-.609-.121-1.15-.285-1.625-.492s-.836-.478-1.086-.812-.374-.746-.374-1.232c0-.62.15-1.162.447-1.625s.755-.812 1.37-1.05 1.377-.355 2.29-.355zm11.407 3.596v2.226h-5.494v-2.226h5.494zm6.315-3.596c.888 0 1.68.207 2.373.62s1.238 1.014 1.633 1.798.593 1.689.593 2.71c0 .098-.006.256-.018.475h-6.808c.025.755.222 1.342.594 1.761s.94.63 1.706.63c.475 0 .91-.118 1.305-.356s.648-.526.758-.867h2.281c-.67 2.117-2.141 3.176-4.417 3.176-.864-.012-1.664-.2-2.4-.566s-1.323-.934-1.761-1.706-.657-1.67-.657-2.692c0-.962.222-1.838.666-2.629s1.034-1.38 1.77-1.77 1.53-.584 2.382-.584zm1.99 3.96c-.122-.705-.347-1.216-.676-1.533s-.797-.474-1.405-.474c-.633 0-1.132.18-1.497.538s-.578.85-.639 1.47h4.217zm9.545-3.96c1.205 0 2.078.304 2.62.913s.811 1.575.811 2.902v5.877h-2.591v-5.348c0-.779-.125-1.357-.375-1.734s-.678-.566-1.286-.566c-.706 0-1.217.213-1.533.639s-.475 1.125-.475 2.099v4.91h-2.592v-9.436h2.464v1.314h.055c.645-1.047 1.612-1.57 2.902-1.57zM180.028 56v13.032h-2.464v-1.205h-.036c-.56.973-1.515 1.46-2.866 1.46-1.302 0-2.333-.474-3.093-1.424s-1.141-2.16-1.141-3.632c0-1.435.386-2.61 1.159-3.522s1.78-1.369 3.02-1.369c.572 0 1.11.119 1.616.356s.897.587 1.177 1.05h.037V56h2.591zm-7.008 8.304c0 .864.203 1.585.611 2.163s.964.867 1.67.867c.742 0 1.299-.27 1.67-.812s.557-1.287.557-2.236-.195-1.685-.584-2.208-.943-.785-1.661-.785c-.742 0-1.305.274-1.688.821s-.575 1.278-.575 2.19zm14.272-4.964c1.302 0 2.343.456 3.121 1.369s1.168 2.148 1.168 3.705c0 1.424-.374 2.592-1.122 3.504s-1.755 1.37-3.02 1.37c-1.242 0-2.185-.475-2.83-1.425h-.036v4.49h-2.592V59.596h2.464V60.8h.037c.62-.973 1.557-1.46 2.81-1.46zm-2.81 5c0 .926.194 1.656.584 2.191s.949.803 1.679.803c.754 0 1.317-.268 1.688-.803s.557-1.265.557-2.19c0-.95-.201-1.694-.603-2.236s-.96-.812-1.679-.812-1.268.268-1.651.803-.575 1.284-.575 2.245zm13.232-5c1.509 0 2.701.46 3.577 1.378s1.314 2.12 1.314 3.605c0 1.496-.447 2.698-1.341 3.604s-2.078 1.36-3.55 1.36c-1.497 0-2.683-.46-3.56-1.378s-1.313-2.114-1.313-3.586c0-1.521.447-2.732 1.341-3.632s2.072-1.351 3.532-1.351zm-2.281 4.983c0 .96.194 1.703.584 2.226s.955.785 1.697.785c.767 0 1.341-.268 1.725-.803s.575-1.271.575-2.208c0-.974-.198-1.722-.594-2.245s-.97-.785-1.724-.785c-.73 0-1.29.262-1.68.785s-.583 1.271-.583 2.245zM206.949 56v2.135h-2.591V56h2.591zm0 3.596v9.436h-2.591v-9.436h2.591zm7.465-.256c1.205 0 2.078.304 2.62.913s.811 1.575.811 2.902v5.877h-2.591v-5.348c0-.779-.125-1.357-.374-1.734s-.679-.566-1.287-.566c-.706 0-1.217.213-1.533.639s-.475 1.125-.475 2.099v4.91h-2.592v-9.436h2.464v1.314h.055c.645-1.047 1.612-1.57 2.902-1.57zm8.688-2.573v2.829H225v1.733h-1.898v4.673c0 .438.073.73.219.876s.438.219.876.219c.316 0 .584-.024.803-.073v2.026c-.365.06-.876.091-1.533.091-.998 0-1.74-.17-2.227-.511s-.73-.93-.73-1.77v-5.53h-1.57v-1.734h1.57v-2.83h2.592z" fill="#a5dee5"/></svg>