<svg width="225" height="106.512" viewBox="0 0 225 106.512" class="css-1j8o68f"><g xmlns="http://www.w3.org/2000/svg" fill="#a5dee5"><path d="M81.161 31.625l-2.863-1.235c-1.454-.624-3.163.046-3.786 1.5l-4.26 9.894-34.344-14.788C35.423 23.059 32.052 20 27.988 20 23.59 20 20 23.579 20 27.977s3.579 7.989 7.989 7.989a7.88 7.88 0 003.913-1.028l37.219 16.035 3.128 1.35a2.882 2.882 0 003.463-.946c.127-.173.231-.358.312-.554l1.281-2.967.024-.046 5.345-12.41c.623-1.443-.058-3.14-1.513-3.775zm-53.172.681c-.277 0-.543-.023-.809-.08a4.325 4.325 0 01-3.509-4.249 4.326 4.326 0 014.318-4.317 4.27 4.27 0 013.232 1.466 4.334 4.334 0 011.085 2.863 4.326 4.326 0 01-4.317 4.317z"/><path d="M77.294 47.868c-.012.034-.023.057-.035.092l-1.235 2.863s0 .012-.012.012l1.282-2.967zm-9.582-10.032l-18.17-7.827a1.39 1.39 0 01-.728-1.824l2.425-5.622a1.39 1.39 0 011.824-.727l18.17 7.827a1.39 1.39 0 01.727 1.823l-2.424 5.623a1.39 1.39 0 01-1.824.727zM75.7 51.389a2.914 2.914 0 01-3.474.958l-2.863-1.235a2.604 2.604 0 01-.254-.127l3.129 1.35a2.893 2.893 0 003.463-.946zm1.825 27.163L74.65 77.33s-.011 0-.011-.012l2.886 1.235zm10.066-9.593l7.746-18.205a1.381 1.381 0 011.813-.728l5.622 2.39c.704.3 1.027 1.12.727 1.813l-7.746 18.205a1.381 1.381 0 01-1.812.727l-5.622-2.39a1.391 1.391 0 01-.728-1.812zm-13.911 7.7l.024.023c0-.011-.012-.011-.023-.023.011 0 .011 0 0 0zm.024.011c.034.035.057.07.092.093-.035-.023-.058-.058-.092-.092zm-.127-.138c.034.046.069.08.104.115a2.885 2.885 0 01-.578-3.117l1.224-2.874c.035-.08.08-.162.127-.242l-1.328 3.128a2.931 2.931 0 00-.23 1.281c0 .035 0 .058.011.081 0 .035 0 .058.012.093v.011c.011.046.011.104.023.15.011.046.011.093.023.139 0 .023.011.046.023.069.011.046.023.08.035.115a.65.65 0 00.046.139c0 .023.011.035.023.058a.427.427 0 00.058.127c.023.046.034.08.057.127.012.023.023.057.046.08 0 .012.012.024.012.035.023.035.035.07.058.092.011.035.034.058.057.081.024.035.047.081.081.116.023.023.035.057.058.08 0 .047.023.081.058.116zm.369.369c-.046-.046-.092-.08-.138-.127.034.035.08.081.138.127zm-25.801-.842l-1.247 2.967c.012-.024.023-.058.035-.081l1.212-2.875v-.011zm8.427 12.918l18.24 7.665c.704.3 1.039 1.108.739 1.812l-2.367 5.634a1.383 1.383 0 01-1.812.739l-18.24-7.666a1.383 1.383 0 01-.739-1.812l2.367-5.634a1.379 1.379 0 011.812-.738zM55.037 75.84l-3.129-1.317a2.897 2.897 0 00-3.174.647 2.879 2.879 0 013.186-.658l2.874 1.212c.093.035.173.07.243.115zm-5.749-26.275l-3.002-1.247a.38.38 0 01.104.046l2.886 1.2c.012-.01.012-.01.012 0zm-12.884 8.473L28.82 76.313a1.394 1.394 0 01-1.813.75l-5.645-2.343a1.394 1.394 0 01-.75-1.813l7.584-18.263a1.394 1.394 0 011.813-.75l5.645 2.343a1.362 1.362 0 01.75 1.801z"/><path d="M96.977 20.889c-4.399 0-7.989 3.579-7.989 7.977 0 1.605.473 3.094 1.293 4.34L74.454 70.415l-1.328 3.128a2.931 2.931 0 00-.23 1.281c0 .024 0 .058.011.081 0 .035 0 .058.012.093v.011c.011.046.011.104.023.15.011.046.011.093.023.139 0 .023.011.046.023.069.011.046.023.08.035.115a.65.65 0 00.046.139c0 .023.011.035.023.058a.427.427 0 00.058.127c.023.046.034.08.057.127.012.023.023.057.046.08 0 .012.012.024.012.035.023.035.035.07.058.092.011.035.034.058.057.081.024.035.047.081.081.116.023.023.035.057.058.08.035.035.058.07.092.116.023.023.035.046.058.07.012.01.012.01.023.022l.023.023.012.012c.08.08.161.162.254.23l.138.105c.173.127.358.23.554.311l2.886 1.236.139.057 12.433 5.288a2.884 2.884 0 003.775-1.524l1.224-2.875c.623-1.454-.07-3.151-1.524-3.775L83.689 71.5l14.8-34.783a7.993 7.993 0 006.511-7.85c-.035-4.398-3.613-7.977-8.023-7.977zm3.151 10.932a4.285 4.285 0 01-3.151 1.362 4.326 4.326 0 01-4.318-4.317c0-.08 0-.173.012-.254a4.317 4.317 0 014.317-4.064 4.326 4.326 0 014.318 4.318 4.3 4.3 0 01-1.178 2.955zM50.026 50.003a2.602 2.602 0 00-.727-.438l-3.001-1.247-.035-.012-12.48-5.171a2.879 2.879 0 00-3.763 1.558l-1.2 2.886a2.879 2.879 0 001.558 3.764l9.951 4.132L25.737 90.64A7.996 7.996 0 0020 98.304c0 4.399 3.579 7.989 7.989 7.989 4.398 0 7.988-3.579 7.988-7.989 0-1.87-.646-3.59-1.731-4.952l15.296-36.884c.046-.08.08-.161.115-.242l1.2-2.886a2.925 2.925 0 00-.83-3.337zM27.99 102.622a4.326 4.326 0 01-4.318-4.318 4.311 4.311 0 014.318-4.318 4.328 4.328 0 014.294 3.868 4.326 4.326 0 01-4.294 4.768zm68.548-12.087a8.05 8.05 0 00-3.983 1.062L55.037 75.84l-3.129-1.316a2.897 2.897 0 00-3.174.647 2.79 2.79 0 00-.59.889l-1.246 2.967-5.253 12.513c-.611 1.467.081 3.164 1.536 3.775l2.874 1.213c1.466.611 3.163-.081 3.775-1.536l4.18-9.94 34.62 14.546a7.985 7.985 0 007.908 6.915c4.398 0 7.989-3.578 7.989-7.988 0-4.399-3.579-7.989-7.989-7.989zm0 12.306a4.28 4.28 0 01-3.255-1.489 4.328 4.328 0 01-1.062-2.828 4.326 4.326 0 014.964-4.272c2.078.312 3.682 2.113 3.682 4.272a4.328 4.328 0 01-4.329 4.317z"/></g></svg>